<?xml version="1.0" encoding="utf-8"?>
<!-- Generator: Adobe Illustrator 23.0.4, SVG Export Plug-In . SVG Version: 6.00 Build 0)  -->
<svg version="1.1" id="Layer_2" xmlns="http://www.w3.org/2000/svg" xmlns:xlink="http://www.w3.org/1999/xlink" x="0px" y="0px"
	 viewBox="0 0 1920 630.41" style="enable-background:new 0 0 1920 630.41;" xml:space="preserve">
<style type="text/css">
	.st0{fill:#FFFFFF;}
</style>
<g>
	<path class="st0" d="M941.8,239.21c29.9,0,44.84-8.12,44.84-24.72V186.3c0-16.6-14.94-24.73-44.84-24.73h-35.9
		c-29.9,0-44.84,8.13-44.84,24.73v28.19c0,16.6,14.94,24.72,44.84,24.72H941.8z M941.8,224.78h-35.9c-16.72,0-24.64-3.02-24.64-9.15
		v-30.47c0-6.13,7.93-9.15,24.64-9.15h35.9c16.72,0,24.64,3.02,24.64,9.15v30.47C966.44,221.76,958.52,224.78,941.8,224.78"/>
	<path class="st0" d="M840.37,214.13v-19.49c0-4.22-2.48-6.15-7.46-6.15c-3.35,0-43.77,0-43.77,0c-3.95,0-7.18,3.56-7.18,7.89
		c0,4.35,3.23,7.9,7.18,7.9h29.94v10.48c0,3.14-3.89,6.18-10.41,8.03c-5.18,1.47-9.5,1.61-14.08,1.61h-48.15
		c-19.19,0-28.81-3.34-28.81-10.03v-49.51c0-6.67,11.47-9.77,34.39-9.77c6.58,0,13.54,0,13.54,0c5.18,0,7.78-2.45,7.78-7.34
		c0-4.86-2.6-7.29-7.78-7.29h-19.21c-11.59,0-22.27,1.34-31.79,4.78c-10.83,3.91-18.22,10.79-18.22,19.67v49.57
		c0,9.23,5.97,15.93,17.86,20.12c8.65,3.07,19.3,4.61,31.98,4.61h48.38c11.8,0,21.8-1.71,30-5.12
		C835.1,229.74,840.37,223.08,840.37,214.13z"/>
	<path class="st0" d="M1135.03,144.62c-8.46-2.66-18.72-4.15-30.75-4.15h-90.49c-3.36,0-6.07,2.86-6.07,6.38v85.89
		c0,4.32,2.56,6.47,7.48,6.47h6.33c4.92,0,7.48-2.15,7.48-6.47v-28.89h75.28c12.81,0,22.67-1.48,31.73-4.62
		c11.64-4.49,17.55-11.64,17.55-21.42v-15.43C1153.56,154.57,1147.45,148.59,1135.03,144.62z M1132.27,178.95
		c0,7.96-9.46,10.27-27.99,10.27H1029v-34.13h75.28c18.53,0,27.99,2.31,27.99,10.27V178.95z"/>
	<path class="st0" d="M1224.03,161.57c-18.57,0-26.43-0.35-37.43,4.39c-10.34,4.46-14.75,12.3-14.75,19.52v47.57
		c0,4.11,2.44,6.16,7.12,6.16h6.03c4.69,0,7.12-2.05,7.12-6.16v-47.57c0-6.65,7.84-9.46,23.37-9.46c0,0,7.89,0,8.68,0
		c5.07,0,7.48-2.43,7.48-7.22C1231.65,164.02,1229.11,161.57,1224.03,161.57"/>
	<path class="st0" d="M1326.37,239.21c29.89,0,44.84-8.12,44.84-24.72V186.3c0-16.6-14.94-24.73-44.84-24.73h-35.9
		c-29.9,0-44.84,8.13-44.84,24.73v28.19c0,16.6,14.94,24.72,44.84,24.72H1326.37z M1326.37,224.78h-35.9
		c-16.72,0-24.64-3.02-24.64-9.15v-30.47c0-6.13,7.93-9.15,24.64-9.15h35.9c16.72,0,24.64,3.02,24.64,9.15v30.47
		C1351.01,221.76,1343.08,224.78,1326.37,224.78"/>
	<g>
		<path class="st0" d="M1253.69,559.57l-226.68-1.17c-5.27-0.03-9.53-4.31-9.53-9.58V329.47c0-5.29,4.29-9.58,9.58-9.58h36.66
			c5.29,0,9.58,4.29,9.58,9.58V493.3c0,5.27,4.26,9.55,9.53,9.58l171.16,0.88c5.29,0.03,9.55,4.34,9.53,9.62l-0.19,36.66
			C1263.29,555.33,1258.98,559.59,1253.69,559.57z"/>
	</g>
	<g>
		<path class="st0" d="M742.67,559.86h-36.66c-5.29,0-9.57-4.29-9.57-9.57V330.34c0-5.29,4.29-9.57,9.57-9.57h206.96
			c24.77,0,44.17,17.58,44.17,40.03v79.25c0,22.44-19.4,40.03-44.17,40.03H761.82c-5.29,0-9.57,4.29-9.57,9.57v60.64
			C752.25,555.57,747.96,559.86,742.67,559.86z M761.82,424.25h129.93c5.29,0,9.57-4.29,9.57-9.57v-28.53
			c0-5.29-4.29-9.57-9.57-9.57H761.82c-5.29,0-9.57,4.29-9.57,9.57v28.53C752.25,419.97,756.53,424.25,761.82,424.25z"/>
	</g>
	<g>
		<path class="st0" d="M1854.11,560.53C1854.11,560.53,1854.1,560.53,1854.11,560.53h-207.7c-5.28,0-9.57-4.28-9.57-9.57v-36.68
			c0-5.28,4.28-9.57,9.57-9.57h186.49c5.28,0,9.57-4.28,9.57-9.57v-18.87c0-5.28-4.28-9.57-9.57-9.57l-151.57,0
			c-24.77,0-44.17-17.58-44.17-40.03v-65.9c0-22.44,19.4-40.03,44.17-40.03h193.05c5.28,0,9.57,4.28,9.57,9.57v36.68
			c0,5.28-4.28,9.57-9.57,9.57h-171.85c-5.28,0-9.57,4.28-9.57,9.57v15.2c0,5.28,4.28,9.57,9.57,9.57l151.57,0
			c24.77,0,44.17,17.58,44.17,40.03v69.57c0,12.08-5.84,23.36-16.01,30.94C1874.4,557.31,1864.4,560.53,1854.11,560.53z"/>
	</g>
	<g>
		<path class="st0" d="M1537.4,560.53h-182.24c-22.44,0-40.03-19.4-40.03-44.17V329.49c0-5.3,4.29-9.59,9.59-9.59h36.63
			c5.3,0,9.59,4.29,9.59,9.59v165.65c0,5.3,4.29,9.59,9.59,9.59h131.49c5.3,0,9.59-4.29,9.59-9.59V329.49c0-5.3,4.29-9.59,9.59-9.59
			h36.63c5.3,0,9.59,4.29,9.59,9.59v186.88C1577.43,541.13,1559.84,560.53,1537.4,560.53z"/>
	</g>
	<path class="st0" d="M373.02,372.08L230.25,254.86c-4.65-3.29-9.78-5.74-15.17-7.28l0,0c-7.33-2.1-14.94-2.35-22.62-0.94
		l-170.73,31.6l137.45,115.05c11.43,9.54,26.51,13.51,41.15,10.82L373.02,372.08z"/>
	<path class="st0" d="M411.12,395.32l-156.08,28.95l0.01,31.5c-0.13,17.85,11.4,31.89,16.89,36.48l139.1,115.12L411.12,395.32z"/>
	<path class="st0" d="M511.8,205.98c-11.43-9.54-26.51-13.51-41.15-10.82l-29.85,5.47l0.07,158.87l208.51-38.61L511.8,205.98z"/>
	<path class="st0" d="M411.04,180.7c0-14.84-6.59-28.91-17.97-38.42L255.06,26.94l0.08,186.53c0,7.91,2.05,15.43,5.53,22.32l0,0
		c3.05,6.07,7.31,11.54,12.65,15.99l137.8,113.18L411.04,180.7z"/>
</g>
</svg>
