<svg xmlns="http://www.w3.org/2000/svg" xmlns:xlink="http://www.w3.org/1999/xlink" width="187" height="56" viewBox="0 0 187 56">
  <defs>
    <polygon id="hp-promo-plus-logo-823-2x-a" points=".18 .015 26.25 .015 26.25 23.185 .18 23.185"/>
    <polygon id="hp-promo-plus-logo-823-2x-c" points="0 .12 35.137 .12 35.137 15.603 0 15.603"/>
  </defs>
  <g fill="none" fill-rule="evenodd">
    <path fill="#333" d="M91.9164499 19.1803957L88.2917825 19.1803957C86.6042098 19.1803957 85.8038486 18.8914918 85.8038486 18.3037798L85.8038486 15.3846545C85.8038486 14.7973163 86.6042098 14.5084124 88.2917825 14.5084124L91.9164499 14.5084124C93.6040226 14.5084124 94.4043839 14.7973163 94.4043839 15.3846545L94.4043839 18.3037798C94.4043839 18.8914918 93.6040226 19.1803957 91.9164499 19.1803957L91.9164499 19.1803957zM91.9164499 20.5625C94.9345444 20.5625 96.4430993 19.7847393 96.4430993 18.1948335L96.4430993 15.4943483C96.4430993 13.9038819 94.9345444 13.125 91.9164499 13.125L88.2917825 13.125C85.2736881 13.125 83.7651332 13.9038819 83.7651332 15.4943483L83.7651332 18.1948335C83.7651332 19.7847393 85.2736881 20.5625 88.2917825 20.5625L91.9164499 20.5625zM81.5012107 18.1178865L81.5012107 16.2178727C81.5012107 15.8061904 81.2518113 15.618699 80.7502653 15.618699L76.3474143 15.618699C75.9498666 15.618699 75.6249214 15.965539 75.6249214 16.3882502 75.6249214 16.8121024 75.9498666 17.1585621 76.3474143 17.1585621L79.3590445 17.1585621 79.3590445 18.1802569C79.3590445 18.4865942 78.9677759 18.7830435 78.3118025 18.9629287 77.7910267 19.1059241 77.3565891 19.119425 76.8950727 19.119425L72.0518973 19.119425C70.1212595 19.119425 69.1542727 18.7942626 69.1542727 18.1416557L69.1542727 13.3157499C69.1542727 12.6654249 70.3084562 12.363271 72.613095 12.363271L73.9750786 12.363271C74.4956582 12.363271 74.7572234 12.1240579 74.7572234 11.6479135 74.7572234 11.1738608 74.4956582 10.9375 73.9750786 10.9375L72.0424786 10.9375C70.8763255 10.9375 69.8027896 11.0679453 68.8450253 11.4029958 67.7559878 11.7840634 67.0121065 12.4543545 67.0121065 13.3199333L67.0121065 18.1511634C67.0121065 19.0507796 67.612745 19.7043372 68.8087241 20.112787 69.6793654 20.4120886 70.7499579 20.5625 72.0256034 20.5625L76.8919331 20.5625C78.0792783 20.5625 79.0847248 20.3959255 79.9098424 20.0637274 80.9716049 19.6393047 81.5012107 18.9908813 81.5012107 18.1178865M110.62765 14.6887743C110.62765 15.4651557 109.687924 15.690293 107.847426 15.690293L100.369153 15.690293 100.369153 12.363433 107.847426 12.363433C109.687924 12.363433 110.62765 12.5885703 110.62765 13.3647615L110.62765 14.6887743zM110.902262 11.3423288C110.061566 11.083535 109.042577 10.9375 107.847426 10.9375L98.8579177 10.9375C98.5245853 10.9375 98.2542373 11.2162595 98.2542373 11.5598601L98.2542373 19.9317733C98.2542373 20.352955 98.5085001 20.5625 98.9972583 20.5625L99.6261324 20.5625C100.115278 20.5625 100.369153 20.352955 100.369153 19.9317733L100.369153 17.1160358 107.847426 17.1160358C109.120484 17.1160358 110.098969 16.9720924 110.999936 16.6653809 112.156134 16.227466 112.743341 15.5311376 112.743341 14.5775366L112.743341 13.0730718C112.743341 12.3120925 112.136173 11.7300442 110.902262 11.3423288L110.902262 11.3423288zM119.690621 13.1255768C117.862718 13.1255768 117.089042 13.0915679 116.006202 13.5458296 114.988076 13.9729963 114.554479 14.7243686 114.554479 15.4151976L114.554479 19.9722027C114.554479 20.3662948 114.794321 20.5625 115.255569 20.5625L115.849124 20.5625C116.310373 20.5625 116.550214 20.3662948 116.550214 19.9722027L116.550214 15.4151976C116.550214 14.7787455 117.321586 14.5087298 118.850504 14.5087298L119.704639 14.5087298C120.204101 14.5087298 120.440678 14.2755259 120.440678 13.8169664 120.440678 13.3606493 120.190083 13.1255768 119.690621 13.1255768M129.950334 19.180361L126.325695 19.180361C124.638043 19.180361 123.837645 18.8914498 123.837645 18.3037231L123.837645 15.3847113C123.837645 14.7973583 124.638043 14.5084471 126.325695 14.5084471L129.950334 14.5084471C131.637789 14.5084471 132.438384 14.7973583 132.438384 15.3847113L132.438384 18.3037231C132.438384 18.8914498 131.637789 19.180361 129.950334 19.180361L129.950334 19.180361zM129.950334 20.5625C132.968372 20.5625 134.476998 19.7849067 134.476998 18.1947741L134.476998 15.4944078C134.476998 13.9040884 132.968372 13.125 129.950334 13.125L126.325695 13.125C123.30746 13.125 121.799031 13.9040884 121.799031 15.4944078L121.799031 18.1947741C121.799031 19.7849067 123.30746 20.5625 126.325695 20.5625L129.950334 20.5625zM122.634756 51.1875L100.106707 51.0742442C99.5830421 51.0717906 99.1598063 50.6577048 99.1598063 50.14793L99.1598063 28.9263142C99.1598063 28.414652 99.5859503 28 100.11136 28L103.75491 28C104.280514 28 104.706658 28.414652 104.706658 28.9263142L104.706658 44.7761383C104.706658 45.2859131 105.1297 45.6999989 105.653364 45.7024525L122.66345 45.7881384C123.18886 45.790592 123.612871 46.2075089 123.610169 46.719171L123.59135 50.2658898C123.588636 50.7775519 123.160359 51.1903166 122.634756 51.1875M73.9379757 38.474002L86.8007162 38.474002C87.3238854 38.474002 87.748369 38.0583449 87.748369 37.5454425L87.748369 34.7786834C87.748369 34.265781 87.3238854 33.8501239 86.8007162 33.8501239L73.9379757 33.8501239C73.4146134 33.8501239 72.9903229 34.265781 72.9903229 34.7786834L72.9903229 37.5454425C72.9903229 38.0583449 73.4146134 38.474002 73.9379757 38.474002M72.042477 51.625L68.4129301 51.625C67.8893746 51.625 67.464891 51.2091537 67.464891 50.6966297L67.464891 29.3658703C67.464891 28.8531571 67.8893746 28.4375 68.4129301 28.4375L88.9007318 28.4375C91.35281 28.4375 93.2736077 30.1425078 93.2736077 32.3191738L93.2736077 40.0049522C93.2736077 42.1816182 91.35281 43.8866259 88.9007318 43.8866259L73.9379757 43.8866259C73.4146134 43.8866259 72.9903229 44.3024723 72.9903229 44.8151854L72.9903229 50.6966297C72.9903229 51.2091537 72.5660325 51.625 72.042477 51.625"/>
    <g transform="translate(160.738 28.438)">
      <mask id="hp-promo-plus-logo-823-2x-b" fill="#fff">
        <use xlink:href="#hp-promo-plus-logo-823-2x-a"/>
      </mask>
      <path fill="#333" d="M21.8449781,23.1854263 L21.844589,23.1854263 L1.13399108,23.1854263 C0.607204814,23.1854263 0.180212257,22.7716331 0.180212257,22.2609426 L0.180212257,18.7164599 C0.180212257,18.2059578 0.607204814,17.7919761 1.13399108,17.7919761 L19.7302464,17.7919761 C20.2572272,17.7919761 20.6842198,17.3779944 20.6842198,16.8674924 L20.6842198,15.0441631 C20.6842198,14.5336611 20.2572272,14.1198679 19.7302464,14.1198679 L4.61587708,14.1196794 C2.14573973,14.1196794 0.21094794,12.4207708 0.21094794,10.2520798 L0.21094794,3.88324644 C0.21094794,1.71436687 2.14573973,0.0154583333 4.61587708,0.0154583333 L23.8665301,0.0154583333 C24.3933164,0.0154583333 24.8203089,0.429440041 24.8203089,0.939942073 L24.8203089,4.4844248 C24.8203089,4.99492683 24.3933164,5.40890854 23.8665301,5.40890854 L6.73021972,5.40890854 C6.20343346,5.40890854 5.77624637,5.82270173 5.77624637,6.33320376 L5.77624637,7.80193394 C5.77624637,8.31243598 6.20343346,8.72641768 6.73021972,8.72641768 L21.8447836,8.72641768 C24.3147264,8.72641768 26.2497127,10.4253262 26.2497127,12.5942058 L26.2497127,19.3174497 C26.2497127,20.4849309 25.66768,21.5745549 24.6530134,22.3073176 C23.8684754,22.8736204 22.8713165,23.1854263 21.8449781,23.1854263" mask="url(#hp-promo-plus-logo-823-2x-b)"/>
    </g>
    <path fill="#333" d="M151.297547,51.1875 L133.051121,51.1875 C130.803986,51.1875 129.043584,49.3178981 129.043584,46.9309883 L129.043584,28.9240864 C129.043584,28.4139215 129.473674,28 130.003768,28 L133.671452,28 C134.201936,28 134.631636,28.4139215 134.631636,28.9240864 L134.631636,44.8854415 C134.631636,45.3957943 135.061531,45.8095279 135.592015,45.8095279 L148.756653,45.8095279 C149.287137,45.8095279 149.717033,45.3957943 149.717033,44.8854415 L149.717033,28.9240864 C149.717033,28.4139215 150.146733,28 150.677217,28 L154.344901,28 C154.874994,28 155.305085,28.4139215 155.305085,28.9240864 L155.305085,46.9309883 C155.305085,49.3178981 153.544682,51.1875 151.297547,51.1875"/>
    <g transform="translate(0 21)">
      <mask id="hp-promo-plus-logo-823-2x-d" fill="#fff">
        <use xlink:href="#hp-promo-plus-logo-823-2x-c"/>
      </mask>
      <path fill="#333" d="M35.1372297,12.4072048 L20.8567917,1.00534337 C20.3922048,0.68521988 19.8788372,0.447262048 19.3395183,0.29735241 C18.6064427,0.0935512048 17.8452694,0.0688825301 17.0770717,0.205888554 L-5.85367811e-05,3.27960542 L13.7484752,14.4706446 C14.8913083,15.3989458 16.3998012,15.7847259 17.8645866,15.5234277 L35.1372297,12.4072048 Z" mask="url(#hp-promo-plus-logo-823-2x-d)"/>
    </g>
    <path fill="#333" d="M38.9394673,35.4375 L23.5447942,38.245123 L23.5457562,41.2997988 C23.5330572,43.0308699 24.6700041,44.3919296 25.2114441,44.8368514 L38.9310013,56 L38.9394673,35.4375 Z"/>
    <path fill="#03BFFE" d="M48.7460109 17.2981134C47.6050527 16.3878838 46.0990347 16.0096912 44.6366524 16.2660362L41.6561743 16.7876556 41.6631872 31.9375 62.4842615 28.2556557 48.7460109 17.2981134zM38.9315772 14.7262706C38.9309999 13.3054933 38.2817052 11.9577728 37.1588142 11.0465247L23.5447942 0 23.5528767 17.8658445C23.5530691 18.6229447 23.7555167 19.3432362 24.0978686 20.0037369 24.3988457 20.5850149 24.8187512 21.1087444 25.3458461 21.5351271L38.9394673 32.375 38.9315772 14.7262706z"/>
  </g>
</svg>
