<svg xmlns="http://www.w3.org/2000/svg" viewBox="0 0 129.97 157.5"><defs><style>.cls-1{fill:#005dac;}.cls-2{fill:#03bffe;}.cls-3{fill:#fff;}</style></defs><title>Asset 2</title><g id="Layer_2" data-name="Layer 2"><g id="Layer_1-2" data-name="Layer 1"><path class="cls-1" d="M109.74,128,28.15,84.85C17,78.94,7.92,63.74,7.92,50.9v-36C7.92,2.06,17-3.56,28.15,2.35l81.59,43.17c11.18,5.92,20.23,21.12,20.23,34v36C130,128.32,120.92,133.94,109.74,128Z"/><polygon class="cls-1" points="69.27 152.46 93.12 117.63 45.43 92.39 69.27 152.46"/><polygon class="cls-1" points="5.45 6.96 13.85 1.59 124.61 128.41 116.21 133.78 90.49 121.46 69.27 152.46 61.35 157.5 37.4 78.36 5.45 6.96"/><path class="cls-2" d="M101.82,133.06,20.23,89.89C9.06,84,0,68.78,0,55.94v-36C0,7.1,9.06,1.48,20.23,7.39l81.59,43.17c11.18,5.92,20.23,21.12,20.23,34v36C122.05,133.36,113,139,101.82,133.06Z"/><polygon class="cls-2" points="61.35 157.5 85.2 122.67 37.51 97.43 61.35 157.5"/><path class="cls-3" d="M103.52,115.81,78.06,102.47l-.57-.93v-5.1l.57-1,11.31-4.27C95,89.05,97.3,87,97.3,81.31c0-4.47-1.7-9.18-6.79-11.85s-7.36-.66-7.36,4.44l-.56.34-4.53-2.37-.57-.93c0-8.29,4.53-11.66,13-7.21A22.88,22.88,0,0,1,103,83.63c0,8.29-3.39,11-9,13.11L85.41,100v.64l18.11,9.48.56.93v4.46Z"/><path class="cls-3" d="M62,94.86,57.92,80.6c2.25-2.71,3.56-6.67,3.56-11.65,0-13.71-9.86-30-22-36.37s-22-.42-22,13.29,9.86,30,22,36.37c4.33,2.26,8.37,3,11.78,2.31Z"/></g></g></svg>