<svg xmlns="http://www.w3.org/2000/svg" viewBox="0 0 116.09 150.55"><defs><style>.cls-1{fill:#ab0000;}.cls-2{fill:red;}.cls-3{fill:#fff;}</style></defs><title>Asset 5</title><g id="Layer_2" data-name="Layer 2"><g id="Layer_1-2" data-name="Layer 1"><ellipse class="cls-1" cx="53.58" cy="72.84" rx="77.54" ry="46.5" transform="translate(-35.2 89.98) rotate(-64.59)"/><polygon class="cls-1" points="18.51 141.94 27.28 146.72 96.78 8.21 87.24 2.98 18.51 141.94"/><path class="cls-2" d="M8.93,105.56c0,21.67,8.16,36.71,20.84,42.43,9.05,4.08,20.41,3.41,32.74-3,29.59-15.38,53.58-58,53.58-95.13S92.1-5,62.51,10.42,8.93,68.39,8.93,105.56Z"/><path class="cls-3" d="M93.39,36.35c-6.55-4.22-17.76,1.34-24.72,12.44-1.69,2.7-3.33,5.44-5,8.21-.84,1.42-1.51,1.88-2.34,1.29-1.08-.77-2.27-1.33-3.37-2C51,51.74,40,57.52,33.12,68.13,29.74,73.37,27,79,26.13,84.89c-1.54,10,.49,16.74,6,20q7.39,4.35,14.75,8.76c4.77,2.86,9.53,5.75,14.29,8.62,1.24.75,1.38.69,2.58-1.35q8.58-14.62,17.14-29.27Q86.87,81.54,92.82,71.4c4.16-7.09,6.67-14.23,6.57-21.67C99.5,43.06,97.27,38.85,93.39,36.35Z"/></g></g></svg>