<svg xmlns="http://www.w3.org/2000/svg" xmlns:xlink="http://www.w3.org/1999/xlink" viewBox="0 0 116.09 150.55"><defs><style>.cls-1,.cls-6{fill:none;}.cls-2{fill:#b8ad19;}.cls-3{fill:#fcee21;}.cls-4{clip-path:url(#clip-path);}.cls-5{fill:red;}.cls-6{stroke:#000;stroke-linecap:round;stroke-miterlimit:10;stroke-width:4.07px;}</style><clipPath id="clip-path"><path class="cls-1" d="M69.26,111.11c0,15.32-5.35,29.15-15.71,23.77s-15.7-24.78-15.7-40.1,5.34-25,15.7-19.58S69.26,95.79,69.26,111.11Z"/></clipPath></defs><title>Asset 4</title><g id="Layer_2" data-name="Layer 2"><g id="Layer_1-2" data-name="Layer 1"><ellipse class="cls-2" cx="62.51" cy="72.84" rx="46.5" ry="77.54" transform="translate(-25.21 33.87) rotate(-25.41)"/><polygon class="cls-2" points="97.58 141.94 88.81 146.72 19.31 8.21 28.86 2.98 97.58 141.94"/><path class="cls-3" d="M107.16,105.56c0,21.67-8.16,36.71-20.83,42.43-9.06,4.08-20.42,3.41-32.75-3C24,129.61,0,87,0,49.86S24-5,53.58,10.42,107.16,68.39,107.16,105.56Z"/><path d="M69.29,111.13c0,15.32-5.35,29.15-15.71,23.76S37.87,110.12,37.87,94.8s5.35-25,15.71-19.58S69.29,95.8,69.29,111.13Z"/><g class="cls-4"><path class="cls-5" d="M53.55,112.37c-6.13-3.19-11.49-1.91-14.38,2.62,3.44,9,8.6,16.88,14.38,19.89s11,.51,14.39-4.93C65.05,122.4,59.69,115.56,53.55,112.37Z"/></g><ellipse cx="73.89" cy="68.3" rx="6.76" ry="14.17" transform="translate(-14.37 19.98) rotate(-14.05)"/><path class="cls-6" d="M77.87,46.67C81,50.45,85.12,56.93,86.5,62.85"/><ellipse cx="33.27" cy="47.03" rx="7.17" ry="13.36" transform="translate(-7.26 6.09) rotate(-9.44)"/><path class="cls-6" d="M29.29,21.26c-3.11.55-7.25,2.73-8.62,7.21"/></g></g></svg>