<svg xmlns="http://www.w3.org/2000/svg" xmlns:xlink="http://www.w3.org/1999/xlink" viewBox="0 0 285.3 159.51"><defs><style>.cls-1{fill:url(#linear-gradient);}.cls-2{fill:url(#linear-gradient-2);}.cls-3{fill:#fff;}</style><linearGradient id="linear-gradient" x1="142.65" y1="159.51" x2="142.65" y2="10.56" gradientUnits="userSpaceOnUse"><stop offset="0.02" stop-color="#31427a"/><stop offset="0.38" stop-color="#465893"/><stop offset="0.41" stop-color="#485a96"/><stop offset="0.56" stop-color="#5469af"/><stop offset="0.81" stop-color="#6d88e3"/></linearGradient><linearGradient id="linear-gradient-2" x1="1553.95" y1="-131.54" x2="1553.84" y2="-330.19" gradientTransform="matrix(0.86, -0.46, 0.89, 0.46, -986.18, 887.24)" gradientUnits="userSpaceOnUse"><stop offset="0" stop-color="#6d88e3"/><stop offset="0.22" stop-color="#5469af"/><stop offset="0.34" stop-color="#485a96"/><stop offset="0.38" stop-color="#465893"/><stop offset="0.79" stop-color="#31427a"/></linearGradient></defs><title>Asset 6</title><g id="Layer_2" data-name="Layer 2"><g id="Layer_1-2" data-name="Layer 1"><path class="cls-1" d="M285.3,75.67l-2.62,0c-3.41-6.6-10.14-12.85-20.19-18L193.33,22.05c-29.67-15.26-77-15.33-105.6-.14L21,57.3C12,62,6,67.7,2.73,73.71L0,73.69V84.25H0c.05,10.17,7.66,20.4,22.79,28.19L92,148c29.67,15.26,76.95,15.33,105.6.14l66.78-35.39c14-7.43,20.94-17.12,20.93-26.87h0Z"/><path class="cls-2" d="M264.35,102.21l-66.78,35.4c-28.65,15.18-75.93,15.11-105.6-.15L22.81,101.88C-6.86,86.61-7.69,61.93,21,46.74L87.73,11.35c28.65-15.19,75.93-15.12,105.6.14l69.16,35.58C292.16,62.34,293,87,264.35,102.21Z"/><path class="cls-3" d="M261.53,103.7l-68.09-35L215.51,57l-23.23-15.4L166.91,55,150,46.31c-7.69-4-10.86-7.74-.23-13.38l13.56-7.19L139.57,13.53c-2.67,1.08-11.44,5-20.81,9.94C99.2,33.84,98.17,47.3,120.88,59l19.57,10.07L118.33,80.77l26.53,13.65L167,82.7l68.09,35,26.45-14Z"/></g></g></svg>