<svg xmlns="http://www.w3.org/2000/svg" xmlns:xlink="http://www.w3.org/1999/xlink" viewBox="0 0 285.3 159.51"><defs><style>.cls-1{fill:url(#linear-gradient);}.cls-2{fill:url(#linear-gradient-2);}.cls-3{fill:url(#linear-gradient-3);}.cls-4{fill:#fff;}</style><linearGradient id="linear-gradient" x1="142.65" y1="159.51" x2="142.65" y2="10.56" gradientUnits="userSpaceOnUse"><stop offset="0.1" stop-color="#53a600"/><stop offset="0.34" stop-color="#63b400"/><stop offset="0.79" stop-color="#8dd700"/><stop offset="0.84" stop-color="#92db00"/></linearGradient><linearGradient id="linear-gradient-2" x1="1371.02" y1="120.81" x2="1370.91" y2="-77.85" gradientTransform="matrix(0.86, -0.46, 0.89, 0.46, -1053.52, 688.55)" gradientUnits="userSpaceOnUse"><stop offset="0.16" stop-color="#92db00"/><stop offset="0.21" stop-color="#8dd700"/><stop offset="0.66" stop-color="#63b400"/><stop offset="0.9" stop-color="#53a600"/></linearGradient><linearGradient id="linear-gradient-3" x1="1370.97" y1="120.79" x2="1370.97" y2="-77.83" xlink:href="#linear-gradient-2"/></defs><title>Asset 7</title><g id="Layer_2" data-name="Layer 2"><g id="Layer_1-2" data-name="Layer 1"><path class="cls-1" d="M285.3,75.67l-2.62,0c-3.41-6.6-10.14-12.85-20.19-18L193.33,22.05c-29.67-15.26-77-15.33-105.6-.14L21,57.3C12,62,6,67.7,2.73,73.71L0,73.69V84.25H0c.05,10.17,7.66,20.4,22.79,28.19L92,148c29.67,15.26,76.95,15.33,105.6.14l66.78-35.39c14-7.43,20.94-17.12,20.93-26.87h0Z"/><path class="cls-2" d="M264.35,102.21l-66.78,35.4c-28.65,15.18-75.93,15.11-105.6-.15L22.81,101.88C-6.86,86.61-7.69,61.93,21,46.74L87.73,11.35c28.65-15.19,75.93-15.12,105.6.14l69.16,35.58C292.16,62.34,293,87,264.35,102.21Z"/><path class="cls-3" d="M264.35,102.21l-66.78,35.4c-28.65,15.18-75.93,15.11-105.6-.15L22.81,101.88C-6.86,86.61-7.69,61.93,21,46.74L87.73,11.35c28.65-15.19,75.93-15.12,105.6.14l69.16,35.58C292.16,62.34,293,87,264.35,102.21Z"/><path class="cls-4" d="M100.23,44C78.33,47.19,59.87,55.7,50.55,66.46c-6.13,7.06-8.21,15.24-4.44,22.89,3.36,6.91,11.89,13.24,23.81,16.87,13,4.17,28.91,5,43.45,3.46,3.26,3.37,6.54,6.73,9.95,10.06,2.52-4.4,4.84-8.83,7.29-13.24a100.93,100.93,0,0,0,23.27-9.22,57.69,57.69,0,0,1-18.36-8c-6.57-4.73-9.66-10.62-9.32-16.38.28-9.84,9.93-19,23.78-25.4-14.67-5-33.34-5.95-49.75-3.5ZM85.37,75.1c3.84,3-.06,7.46-6.9,7.73-7.28.65-13.73-3.9-10.32-7.31C71.06,72,81.66,71.67,85.37,75.1Zm32.21-18.53c5.57,2.82,1.91,8.36-5.84,8.55-7.22.62-13.52-3.86-10.21-7.23,2.58-3.22,11.53-4,16-1.32Z"/><path class="cls-4" d="M211.59,42.46a99.24,99.24,0,0,0-35.22-.21c-19.91,3.39-36.11,12-42.15,22.51C130,72,131.05,80.47,139.39,87c6,4.91,15.85,8.34,26.53,9.71a101.93,101.93,0,0,0,46.2-5,59.45,59.45,0,0,0,22.42-13.6c6.54-1.5,13.75-2.15,20.51-3.39q-7.81-2.2-15.8-4.23c1.32-4.61,1.28-9.44-1.79-13.92-4-6.38-13.85-11.7-25.87-14.08ZM169.18,68.1c2.6,2.54-1.54,5.91-6.93,5.78-5.44.14-9.87-3.28-7.37-5.83,2.31-3.08,11.87-3.07,14.3,0ZM196.3,54.27c2,2.48-2.12,5.46-7.14,5.39a21.11,21.11,0,0,1-6.1-1.14c-2-1.68-3.05-4-.29-5.57C186.19,50.55,194.69,51.27,196.3,54.27Z"/></g></g></svg>