<svg xmlns="http://www.w3.org/2000/svg" viewBox="0 0 129.97 157.5"><defs><style>.cls-1{fill:#ab0000;}.cls-2{fill:red;}.cls-3{fill:#fff;}</style></defs><title>Asset 3</title><g id="Layer_2" data-name="Layer 2"><g id="Layer_1-2" data-name="Layer 1"><path class="cls-1" d="M20.23,128l81.59-43.17C113,78.94,122.05,63.74,122.05,50.9v-36c0-12.84-9-18.46-20.23-12.55L20.23,45.52C9.06,51.44,0,66.64,0,79.48v36C0,128.32,9.06,133.94,20.23,128Z"/><polygon class="cls-1" points="60.7 152.46 36.86 117.63 84.54 92.39 60.7 152.46"/><polygon class="cls-1" points="124.53 6.96 116.13 1.59 5.36 128.41 13.77 133.78 39.48 121.46 60.7 152.46 68.62 157.5 92.58 78.36 124.53 6.96"/><path class="cls-2" d="M28.15,133.06l81.59-43.17C120.92,84,130,68.78,130,55.94v-36c0-12.84-9-18.46-20.23-12.55L28.15,50.56C17,56.48,7.92,71.68,7.92,84.52v36C7.92,133.36,17,139,28.15,133.06Z"/><polygon class="cls-2" points="68.62 157.5 44.78 122.67 92.46 97.43 68.62 157.5"/><g id="O4KbAF"><path class="cls-3" d="M67.18,51.81c-4.35-2.57-11.8.94-16.41,7.85-1.13,1.68-2.22,3.39-3.3,5.11-.55.88-1,1.17-1.55.81-.71-.47-1.5-.81-2.24-1.24-4.62-2.75-12,.9-16.53,7.5a26.39,26.39,0,0,0-4.64,10.41c-1,6.22.33,10.35,4,12.34q4.92,2.64,9.8,5.32c3.17,1.74,6.33,3.5,9.49,5.25.83.45.91.41,1.71-.86q5.7-9.09,11.39-18.2L66.8,73.49c2.76-4.41,4.43-8.84,4.36-13.44C71.24,55.92,69.75,53.33,67.18,51.81Z"/></g><path class="cls-3" d="M100.21,75.13l-.54-.35V39.08l-.54.28L92.61,50.43,91.52,51,91,50.65v-5.1l8.16-13.84,1.08-1.21,4.35-2.28.54.35V71.93l-.54.92Z"/></g></g></svg>