<svg xmlns="http://www.w3.org/2000/svg" xmlns:xlink="http://www.w3.org/1999/xlink" viewBox="0 0 285.3 159.51"><defs><style>.cls-1{fill:url(#linear-gradient);}.cls-2{fill:url(#New_Gradient_Swatch_2);}.cls-3{fill:#fff;}</style><linearGradient id="linear-gradient" x1="142.65" y1="159.51" x2="142.65" y2="10.56" gradientUnits="userSpaceOnUse"><stop offset="0" stop-color="#8c3aaa"/><stop offset="0.06" stop-color="#a3308a"/><stop offset="0.11" stop-color="#b22974"/><stop offset="0.14" stop-color="#b8266c"/><stop offset="0.32" stop-color="#d82d7e"/><stop offset="0.56" stop-color="#eb6841"/><stop offset="0.78" stop-color="#fa9611"/></linearGradient><radialGradient id="New_Gradient_Swatch_2" cx="1742.6" cy="-476.34" fx="1634.0469393797034" fy="-367.7801484313093" r="153.52" gradientTransform="matrix(0.86, -0.46, 0.89, 0.46, -929.93, 1085.42)" gradientUnits="userSpaceOnUse"><stop offset="0.11" stop-color="#fa9611"/><stop offset="0.34" stop-color="#eb6841"/><stop offset="0.61" stop-color="#d82d7e"/><stop offset="0.68" stop-color="#cf2f83"/><stop offset="0.8" stop-color="#b63392"/><stop offset="0.95" stop-color="#8d3aa9"/><stop offset="0.95" stop-color="#8c3aaa"/></radialGradient></defs><title>Asset 1</title><g id="Layer_2" data-name="Layer 2"><g id="Layer_1-2" data-name="Layer 1"><path class="cls-1" d="M285.3,75.67l-2.62,0c-3.41-6.6-10.14-12.85-20.19-18L193.33,22.05c-29.67-15.26-77-15.33-105.6-.14L21,57.3C12,62,6,67.7,2.73,73.71L0,73.69V84.25H0c.05,10.17,7.66,20.4,22.79,28.19L92,148c29.67,15.26,76.95,15.33,105.6.14l66.78-35.39c14-7.43,20.94-17.12,20.93-26.87h0Z"/><path class="cls-2" d="M264.35,102.21l-66.78,35.4c-28.65,15.18-75.93,15.11-105.6-.15L22.81,101.88C-6.86,86.61-7.69,61.93,21,46.74L87.73,11.35c28.65-15.19,75.93-15.12,105.6.14l69.16,35.58C292.16,62.34,293,87,264.35,102.21Z"/><path class="cls-2" d="M264.35,102.21l-66.78,35.4c-28.65,15.18-75.93,15.11-105.6-.15L22.81,101.88C-6.86,86.61-7.69,61.93,21,46.74L87.73,11.35c28.65-15.19,75.93-15.12,105.6.14l69.16,35.58C292.16,62.34,293,87,264.35,102.21Z"/><path class="cls-3" d="M123.53,84.61c-11-5.63-11.26-14.73-.69-20.33s28-5.58,38.94,0,11.25,14.74.69,20.34-28,5.57-38.94-.06m-10.35,5.48c16.86,8.68,43.72,8.71,60,.09s15.81-22.65-1-31.33-43.71-8.7-60-.08-15.8,22.65,1.06,31.32m21.48-44.53c3.94,2,10.22,2,14,0s3.7-5.29-.24-7.32-10.21-2-14,0h0c-3.8,2-3.69,5.29.24,7.32m33.18,66.09a57.58,57.58,0,0,1-12.7,4.6,45.39,45.39,0,0,1-11.05,1.21A46.24,46.24,0,0,1,133,116.22a61.18,61.18,0,0,1-13-4.63c-6.54-3.08-8.48-4-24.35-12.18S77.92,90.25,71.92,86.88c-5.54-3.12-7.74-5.24-9.06-6.73a8.7,8.7,0,0,1-2.54-5.79,8,8,0,0,1,2.15-5.79c1.21-1.49,3.28-3.6,8.61-6.7,5.77-3.35,7.53-4.35,22.84-12.47s17.2-9,23.54-12.11a58.12,58.12,0,0,1,12.7-4.6,46.39,46.39,0,0,1,11.05-1.21,47.42,47.42,0,0,1,11.13,1.24,61.33,61.33,0,0,1,13,4.64c6.55,3.07,8.48,4,24.35,12.18s17.7,9.16,23.69,12.53c5.54,3.12,7.75,5.23,9.06,6.73A8.63,8.63,0,0,1,225,74.59a8.1,8.1,0,0,1-2.15,5.78c-1.21,1.49-3.28,3.6-8.61,6.7-5.77,3.36-7.52,4.35-22.85,12.47s-17.2,9.06-23.53,12.11m-107.93-55c-5.83,3.39-9,6.12-11.17,8.81a12.82,12.82,0,0,0-3.31,8.91c.11,3.39,1.46,6.14,3.91,8.93s5.71,5.43,11.76,8.83,8,4.49,24.15,12.79,18.24,9.31,24.86,12.43a81.43,81.43,0,0,0,17.09,6,73.24,73.24,0,0,0,17.15,1.91,72.38,72.38,0,0,0,17-1.86,76.31,76.31,0,0,0,16.69-6c6.41-3.1,8.43-4.1,24-12.36s17.47-9.33,23.3-12.72,9-6.12,11.17-8.81a12.87,12.87,0,0,0,3.31-8.91c-.11-3.39-1.47-6.14-3.91-8.93s-5.71-5.43-11.76-8.83-8-4.49-24.16-12.79-18.24-9.31-24.85-12.43a81.34,81.34,0,0,0-17.09-6A74.47,74.47,0,0,0,141,23.72a72.28,72.28,0,0,0-17,1.85,76.21,76.21,0,0,0-16.69,6c-6.41,3.09-8.43,4.09-24,12.35s-17.47,9.33-23.3,12.73"/></g></g></svg>